<svg xmlns="http://www.w3.org/2000/svg" width="256" height="256"><path fill-opacity=".016" d="M0 128.004v128.004l128.25-.254 128.25-.254.254-127.75L257.008 0H0v128.004m.485.496c0 70.4.119 99.053.265 63.672.146-35.38.146-92.98 0-128C.604 29.153.485 58.1.485 128.5" fill="#1976D2" fill-rule="evenodd"/><path fill-opacity=".466" d="M115.553 24.914c-.369.597-3.412 1.086-6.762 1.086-10.819 0-32.168 4.834-46.029 10.423C33.211 48.337 13.179 66.877 4.024 90.787 2.911 93.695 2 97.182 2 98.537 2 99.892 1.55 101 1 101c-.606 0-1 4.333-1 11s.394 11 1 11c.55 0 1.005 1.237 1.012 2.75.016 3.662 5.632 16.356 10.519 23.778 4.864 7.389 16.112 18.565 24.586 24.428 15.345 10.62 21.108 14.264 27.751 17.547 3.892 1.923 7.359 3.497 7.703 3.497.345 0 2.045.633 3.778 1.406 3.937 1.757 16.833 5.56 19.306 5.694 1.295.07 1.099.306-.655.793-2.447.679-2.506.924-2.786 11.569-.157 5.993.134 11.137.648 11.457.513.32 3.904.43 7.536.246 4.867-.248 6.602-.707 6.602-1.75 0-1.56-.552-1.678-6.75-1.432-4.239.168-4.25.159-4.25-3.407 0-3.404.165-3.576 3.418-3.576 4.583 0 6.57-.868 5.912-2.583-.355-.925-2.069-1.417-4.937-1.417-4.019 0-4.393-.213-4.393-2.5 0-2.333.333-2.5 5-2.5 2.75 0 5-.45 5-1s.9-1 2-1c1.857 0 2 .667 2 9.345 0 8.111.267 9.587 2.024 11.176 1.575 1.426 2.289 1.566 3.225.63.935-.935.929-1.636-.024-3.162-.684-1.095-1.225-5.281-1.225-9.475V206l20.25-.084c11.137-.047 22.725-.461 25.75-.921 11.216-1.704 26.515-5.565 31.5-7.949 1.1-.526 4.801-2.103 8.224-3.503 11.968-4.897 26.174-14.327 34.776-23.084 12.728-12.958 19.619-26.752 21.461-42.959 1.18-10.389 1.216-31.585.039-23-.377 2.75-.756 3.848-.843 2.44-.376-6.127-7.497-20.789-14.033-28.894-8.213-10.184-14.825-15.735-35.072-29.443-7.919-5.362-22.331-12.234-31.552-15.045-4.95-1.509-10.125-3.128-11.5-3.598-3.443-1.175-15.707-3.068-26.5-4.09a1761.39 1761.39 0 01-14.638-1.447c-3.598-.38-5.88-.202-6.309.491M100.5 28.091c-40.89 6.884-72.29 25.151-87.303 50.788-5.194 8.871-6.716 13.049-8.715 23.927-1.586 8.631-1.586 9.757 0 18.388 2.001 10.888 3.537 15.102 8.677 23.806 4.179 7.075 11.8 16.259 11.825 14.25.009-.687-.321-1.254-.734-1.258-.413-.004-1.246-1.017-1.852-2.25a698.303 698.303 0 00-3.66-7.242c-4.532-8.856-5.947-14.568-6.474-26.128-.438-9.62-.201-12.126 1.745-18.5 4.524-14.81 11.148-25.177 23.432-36.668 9.7-9.074 21.126-16.07 38.059-23.304 11.14-4.759 27.457-8.311 43.355-9.438 7.234-.513 10.467-1.137 10.833-2.091.287-.748.839-1.163 1.227-.923.388.24 3.154.53 6.146.645 2.991.115 5.889.546 6.439.959.55.412 6.175 1.29 12.5 1.951s11.909 1.452 12.409 1.757c1.071.653 12.311 3.326 14.841 3.529.963.077 1.75.493 1.75.925 0 .432.675.786 1.5.786 2.743 0 1.551-1.506-2.622-3.314-10.477-4.539-24.212-8.267-39.378-10.688-7.21-1.151-36.984-1.088-44 .093M.378 112c0 6.325.163 8.912.361 5.75.198-3.163.198-8.338 0-11.5-.198-3.163-.361-.575-.361 5.75m129.802 96.566l-3.18 1.337v11.049c0 10.255.139 11.048 1.934 11.048 1.366 0 2.026-.807 2.25-2.75.27-2.354.713-2.704 3.071-2.428 3.981.466 8.745-4.498 8.745-9.11 0-6.857-6.773-11.688-12.82-9.146M147 210c-3.349 3.349-2.398 6.058 3.088 8.797 4.046 2.019 3.684 3.675-.826 3.774-3.991.089-4.93.919-3.282 2.905 2.506 3.019 10.513 1.193 11.047-2.52.524-3.639-.3-5.055-4.062-6.974-4.443-2.267-4.428-3.982.035-3.982 3.276 0 4.94-1.79 2.878-3.096-2.4-1.521-6.806-.976-8.878 1.096m17.034-.723c-5.233 2.649-5.259 13.521-.039 16.221 4.514 2.334 10.005 1.728 10.005-1.105 0-.946-1.219-1.393-3.8-1.393-3.519 0-6.2-1.361-6.2-3.148 0-.411 2.363-.883 5.25-1.05 4.887-.281 5.272-.491 5.565-3.033.215-1.872-.478-3.523-2.205-5.25-2.797-2.797-4.901-3.101-8.576-1.242M119 217.5c0 7.833.157 8.5 2 8.5s2-.667 2-8.5-.157-8.5-2-8.5-2 .667-2 8.5m12.402-4.105c-.294.767-.393 3.129-.219 5.25.289 3.52.571 3.855 3.234 3.855 2.251 0 3.114-.592 3.783-2.599 1.309-3.927-.556-7.901-3.707-7.901-1.406 0-2.797.628-3.091 1.395m33.638.057c-1.121 1.35-.811 1.548 2.421 1.548 2.517 0 3.574-.401 3.294-1.25-.617-1.873-4.251-2.063-5.715-.298" fill="#1976D2" fill-rule="evenodd"/><path fill-opacity=".075" d="M126.597 34.844c-.346.56-.142 1.319.453 1.687 1.538.95 2.53-.351 1.246-1.635-.718-.718-1.277-.735-1.699-.052M57 39.5c-1.375.786-2.05 1.429-1.5 1.429.55 0 2.125-.643 3.5-1.429s2.05-1.429 1.5-1.429c-.55 0-2.125.643-3.5 1.429m-12.358 6.489c-15.914 9.3-27.359 20.635-35.587 35.247-3.525 6.259-7.035 16.698-7.047 20.955-.005 1.48-.458 2.969-1.008 3.309-1.303.805-1.303 12.195 0 13 .55.34 1 1.789 1 3.221 0 11.287 12.345 32.497 25.415 43.662 9.076 7.754 28.42 20.837 29.668 20.066.504-.312.917-.064.917.551s.45.84 1 .5c.55-.34 1-.141 1 .441S60.808 188 61.796 188c1.355 0 1.856-.897 2.042-3.664.136-2.015.455-4.002.711-4.415.255-.412-.102-.952-.793-1.199-.691-.246-1.001-.728-.689-1.069.312-.342 3.237.691 6.5 2.294 12.577 6.179 15.528 7.264 30.211 11.101 29.191 7.63 66.715 4.328 92.771-8.164 9.634-4.619 22.087-12.922 27.451-18.304 2.475-2.483 4.87-4.529 5.321-4.547.452-.018.095.694-.794 1.583-1.214 1.214-1.543 3.142-1.322 7.75.268 5.567.503 6.144 2.545 6.247 1.241.063 2.25-.471 2.25-1.191 0-.717.52-1.625 1.155-2.017.775-.48.889-.253.346.69-.445.773.103.505 1.217-.595 1.115-1.1 1.789-2.407 1.5-2.905-.29-.497-.025-.594.589-.215.617.382 2.36-.726 3.904-2.484a368.03 368.03 0 013.811-4.285c1.785-1.94 8.478-12.416 8.484-13.28.004-.457.659-2.083 1.457-3.613 3.334-6.391 6.75-26.077 6.371-36.718l-.16-4.5L256 110c-.472 3.854-.723 4.498-.837 2.154-.194-3.974-2.763-13.161-4.743-16.955-.774-1.484-1.41-3.073-1.414-3.53-.008-1.145-7.032-11.699-9.495-14.265-1.106-1.154-3.351-3.732-4.989-5.731-2.922-3.565-6.355-5.943-4.927-3.412.385.682-.285.226-1.487-1.011-1.202-1.237-2.731-2.257-3.397-2.265-.839-.011-.794-.28.146-.875.834-.529.971-1.098.355-1.479-1.559-.963-2.077 1.541-1.887 9.115l.175 6.972-5.92-5.359c-8.421-7.622-10.382-7.32-3.741.577 2.111 2.51 4.374 5.689 5.029 7.064l1.19 2.5-1.779-2.456C206.617 64.947 195.278 56.64 178 51.535c-3.025-.893-6.85-2.038-8.5-2.543-5.49-1.679-17.827-3.212-21.689-2.693-2.096.281-3.811.104-3.811-.394 0-2.413-29.99-.211-43.5 3.195-13.55 3.415-32.904 11.187-36.321 14.586-.727.723-1.772 1.314-2.322 1.314s-.293-.707.572-1.571c2.027-2.028 2.026-8.486-.003-10.988-.866-1.067-1.289-1.378-.941-.691.426.841-.214 1.25-1.957 1.25-1.425 0-2.849.672-3.164 1.494-.316.822-.917 1.282-1.337 1.023-1.174-.726-11.945 7.181-20.436 15C29.767 74.959 22.058 85.911 18.765 93c-2.06 4.437-4.228 11.482-5.307 17.25-1.766 9.438-1.766 10.062 0 19.5 1.564 8.358 7.2 23.467 9.42 25.25.652.524 4.114 5.431 5.644 8 2.168 3.641-4.3-2.04-9.22-8.099-24.425-30.076-20.937-67.804 8.816-95.349 4.983-4.614 8.921-7.452 22.537-16.243 4.344-2.805.251-.98-6.013 2.68m105.751 17.593c.334.87.607 2.445.607 3.5 0 1.055.45 1.918 1 1.918s1-.927 1-2.059c0-1.132.45-1.781 1-1.441.55.34 1 .157 1-.406 0-.974-3.112-3.094-4.541-3.094-.37 0-.4.712-.066 1.582M147.232 65c1.262 2.02 2.768 2.673 2.768 1.2 0-1.039-2.167-3.2-3.208-3.2-.445 0-.247.9.44 2m8.407 3.694c-1.126 1.126-.685 2.306.861 2.306.825 0 1.5-.423 1.5-.941 0-1.261-1.562-2.164-2.361-1.365m-9.35 8.501c.07 2.501.545 3.376 1.83 3.376.954 0 1.515-.354 1.247-.788-.268-.434-1.092-1.953-1.83-3.377l-1.343-2.588.096 3.377M152 76c0 .55.45 1 1 1s1-.45 1-1-.45-1-1-1-1 .45-1 1m3.75 3.217c-.963 1.204-1.75 1.648-1.75.986 0-.661-.477-1.203-1.059-1.203s-.75.5-.372 1.112c.378.611.067 1.554-.691 2.094-1.074.766-.999.861.34.432.945-.303 1.984-.12 2.309.406.325.526 1.041.956 1.591.956s.701-.483.336-1.074c-.365-.591.362-2.166 1.616-3.5 1.589-1.692 1.848-2.422.854-2.413-.783.008-2.211.999-3.174 2.204m1.381 7.945c-.698 1.118-1.013 2.289-.7 2.602.313.313.569.044.569-.597 0-.642.675-1.167 1.5-1.167 1.59 0 2.045-1.545.7-2.376-.44-.272-1.371.42-2.069 1.538m-13.32 3.877c1.204 1.121 2.189 2.396 2.189 2.833 0 .437.675.795 1.5.795 2.068 0 1.911-.402-1.25-3.183-3.326-2.928-5.536-3.331-2.439-.445m9.772.827c-.431.697-.513 1.537-.183 1.867.895.895 1.871-.421 1.387-1.871-.338-1.016-.574-1.016-1.204.004m4.417.016c0 .55.45 1.278 1 1.618.55.34 1 .168 1-.382s-.45-1.278-1-1.618c-.55-.34-1-.168-1 .382m68.079 7.701c.048 1.165.285 1.402.604.605.289-.722.253-1.585-.079-1.917-.332-.332-.568.258-.525 1.312m-68.253 3.317c1.745 2.42 3.181 5.345 3.189 6.5.009 1.155.491 2.775 1.072 3.6.77 1.094.879.179.404-3.378-.625-4.679-1.699-6.432-5.915-9.652-1.156-.882-.656.289 1.25 2.93M.32 112c0 3.575.182 5.037.403 3.25.222-1.787.222-4.713 0-6.5-.221-1.787-.403-.325-.403 3.25m226.766 0c-.039 4.545.236 6.049.914 5 1.175-1.819 1.175-6.765 0-9.5-.601-1.399-.876-.048-.914 4.5m-77.503-3.134c-.431.697-.513 1.537-.183 1.867.895.895 1.871-.421 1.387-1.871-.338-1.016-.574-1.016-1.204.004M147 113.5c.685.825 1.695 1.5 2.245 1.5.558 0 .449-.663-.245-1.5-.685-.825-1.695-1.5-2.245-1.5-.558 0-.449.663.245 1.5m16.032 2.059c-.018.582.629 1.932 1.436 3 .808 1.067 1.483 1.465 1.5.882.018-.582-.629-1.932-1.436-3-.808-1.067-1.483-1.465-1.5-.882m3.396 7.87c-.358 1.428-1.385 3.007-2.281 3.509-.897.501-1.299 1.243-.895 1.648.405.404 1.581-.03 2.615-.965 1.783-1.614 1.909-1.585 2.473.572.327 1.25.159 2.708-.373 3.24-1.418 1.418-1.18 2.567.533 2.567.825 0 1.5-.675 1.5-1.5s.419-1.5.932-1.5c1.59 0 .535-4.591-1.712-7.448l-2.14-2.72-.652 2.597m59.651 1.154c.048 1.165.285 1.402.604.605.289-.722.253-1.585-.079-1.917-.332-.332-.568.258-.525 1.312m-76.896 4.634c-1.4 1.4-1.545 2.783-.29 2.783.916 0 2.425-3.016 1.814-3.626-.187-.188-.873.192-1.524.843m-4.933 3.563c-1.238.197-2.25.808-2.25 1.357 0 .876 3.744.296 4.917-.761.771-.696-.401-.958-2.667-.596m3.389 8.914c-1.126 1.126-.685 2.306.861 2.306.825 0 1.5-.423 1.5-.941 0-1.261-1.562-2.164-2.361-1.365m67.866 4.863c-13.115 19.043-45.892 35.744-74.789 38.108-8.087.661-11.689 2.335-5.025 2.335 4.614 0 16.496-2.213 25.952-4.834 10.183-2.822 23.605-8.845 32.263-14.478 8.201-5.336 21.918-18.513 24.531-23.566 2.414-4.667 1.354-3.787-2.932 2.435M145 156c0 .55.45 1 1 1s1-.45 1-1-.45-1-1-1-1 .45-1 1m-1.5 4c-.34.55-.141 1 .441 1s1.059-.45 1.059-1-.198-1-.441-1-.719.45-1.059 1m3 2c.34.55.816 1 1.059 1s.441-.45.441-1-.477-1-1.059-1-.781.45-.441 1m2 6c-.34.55.11 1 1 1s1.34-.45 1-1c-.34-.55-.79-1-1-1-.21 0-.66.45-1 1m-76 10c2.749 1.181 4.328 1.181 2.5 0-.825-.533-2.175-.945-3-.914-.989.036-.819.347.5.914m5.587 1.911C84.394 183.91 130 190.263 130 187.142c0-.755-2.554-1.142-7.539-1.142-14.167 0-25.975-1.763-43.961-6.562-1.653-.441-1.725-.359-.413.473M142 192.559c0 .857.45 1.281 1 .941.55-.34 1-1.041 1-1.559s-.45-.941-1-.941-1 .702-1 1.559m-31.297 19.691c.562 11.192 1.291 13.75 3.919 13.75 1.775 0 1.735-.525-.27-3.585-1.363-2.081-1.54-4.142-1.026-11.965.58-8.841.498-9.45-1.283-9.45-1.793 0-1.871.659-1.34 11.25m8.297-8.177c0 2.563 3.31 2.272 3.812-.334.231-1.2-.308-1.739-1.739-1.739s-2.073.642-2.073 2.073m-24.25-.384c-1.533.401-1.75 1.821-1.75 11.43v10.972l6.75-.295c7.785-.341 8.738-2.146 1.369-2.595-4.516-.274-4.939-.52-5.316-3.09-.644-4.39.038-5.111 4.839-5.111 2.729 0 4.235-.39 3.858-1-.34-.55-2.34-1-4.446-1-3.489 0-3.866-.265-4.268-3.006-.243-1.653-.219-3.228.053-3.5.272-.272 2.669-.494 5.328-.494 3.629 0 4.833-.374 4.833-1.5 0-1.139-1.143-1.472-4.75-1.384-2.612.064-5.537.322-6.5.573M120 217.417c0 5.055.411 8.583 1 8.583 1.137 0 1.088.394 1.158-9.215.032-4.423-.375-7.357-1.053-7.583-.75-.25-1.105 2.392-1.105 8.215m8.667-7.75c-1.12 1.12-.78 22.333.358 22.333.564 0 1.295-1.35 1.625-3 .524-2.622 1.025-3 3.975-3 4.618 0 7.375-2.94 7.375-7.865 0-5.822-3.049-9.135-8.406-9.135-2.343 0-4.561.3-4.927.667m18.379.778c-2.182 2.629-.807 5.924 3.27 7.84 5.092 2.392 4.755 5.265-.599 5.101-2.529-.078-3.717.322-3.717 1.25 0 1.792 6.974 1.835 9.404.058 2.884-2.109 1.654-5.813-2.69-8.095-4.505-2.367-4.646-5.08-.266-5.138 1.601-.021 3.093-.583 3.315-1.25.592-1.775-7.224-1.566-8.717.234m15.815.467c-1.872 1.516-2.361 2.88-2.361 6.588 0 6.064 2.879 8.742 8.921 8.299 2.244-.164 3.854-.737 3.579-1.272-.275-.536-1.488-.844-2.695-.686-3.105.407-6.305-1.56-6.305-3.876 0-1.719.7-1.965 5.579-1.965h5.58l-.673-3.25c-.37-1.787-1.392-3.812-2.271-4.5-2.34-1.831-6.653-1.526-9.354.662m-31.467 1.259c-1.256 2.032-.716 10.011.74 10.933 5.54 3.51 10.116-6.054 4.912-10.268-2.607-2.111-4.612-2.347-5.652-.665m33.806.029c-2.248 2.248-1.333 3.8 2.241 3.8 4.085 0 5.174-1.242 2.997-3.419-1.888-1.888-3.606-2.013-5.238-.381" fill="#1976D2" fill-rule="evenodd"/><path fill-opacity=".774" d="M107.5 48.437C80.907 53.884 62.374 63.44 47.091 79.586c-20.701 21.869-23.672 47.948-8.168 71.698 6.131 9.392 11.8 14.27 23.252 20.01 19.344 9.693 32.608 12.794 57.516 13.446l18.192.477 1.558-3.731c1.757-4.204 1.978-5.863.673-5.057-1.327.821-2.077-4.629-.931-6.771.548-1.024.771-2.726.495-3.78-.276-1.055.226-3.769 1.114-6.03 1.598-4.068 1.588-4.134-.927-6.23-1.803-1.502-2.491-2.99-2.366-5.115.154-2.639.62-3.07 3.889-3.601 2.043-.332 4.16-1.05 4.706-1.596 1.283-1.283-2.124-7.486-3.771-6.867-1.651.62-3.086-1.412-3.485-4.934-.273-2.419-.899-3.093-3.256-3.5-1.604-.278-3.12-1.115-3.368-1.86-.327-.982.137-1.168 1.683-.678 2.17.689 8.791-.954 10.595-2.629.645-.6.47-1.251-.5-1.864-2.302-1.455-2.992-1.167-2.992 1.249 0 2.179-.027 2.183-1.386.244-1.879-2.684-3.695-9.467-2.533-9.467 1.282 0 1.153-4.366-.168-5.687-.783-.783-.781-1.277.007-1.764.602-.371 1.364.028 1.694.888.872 2.271 4.128 1.914 5.473-.6l1.158-2.164 1.87 2.414c1.457 1.879 2.062 2.118 2.738 1.079 1.596-2.45 2.216 1.645.892 5.886-.821 2.631-1.818 3.948-2.988 3.948-.967 0-1.757.675-1.757 1.5s.45 1.5 1 1.5 1 .681 1 1.514c0 1.666 2.011 5.629 3.353 6.609 1.019.743-1.006 4.877-2.388 4.877-.531 0-.965.675-.965 1.5s-.338 1.387-.75 1.25c-.413-.138-.75.2-.75.75s.337.888.75.75c.412-.137.75.277.75.921s.719 1.966 1.598 2.937c1.82 2.012 1.116 3.892-1.457 3.892-2.289 0-4.141 1.928-4.141 4.311 0 1.786-.114 1.77-1.75-.248l-1.75-2.159-.144 2.548c-.107 1.885.349 2.548 1.75 2.548 1.042 0 1.894.45 1.894 1s.675 1 1.5 1c1.048 0 1.5 1.056 1.5 3.5 0 1.925.48 3.5 1.067 3.5s.802.836.478 1.859c-.341 1.073.053 2.393.932 3.122 1.839 1.526 2.008 4.017.273 4.025-1.107.006-4.524 4.846-4.776 6.764-.052.402-1.052 1.748-2.221 2.993-3.56 3.789-1.201 4.615 7.865 2.756 41.195-8.45 69.612-31.961 74.836-61.917 3.337-19.135-3.604-37.067-20.524-53.03-9.945-9.38-22.15-14.831-43.43-19.395-9.789-2.099-13.532-2.395-14.991-1.185-.782.649-1.891.89-2.465.535-.574-.355-1.044-.168-1.044.414S142.132 49 141.071 49c-1.06 0-2.647.719-3.525 1.597-.879.879-2.318 1.321-3.198.983-.881-.338-2.214-.106-2.963.515-2.066 1.715-2.973-1.65-.982-3.641.878-.878 1.597-1.79 1.597-2.025 0-1.191-14.812.023-24.5 2.008m25.5-1.496c0 1.572 1.978 2.281 4.557 1.634C141.193 47.663 140.51 46 136.5 46c-1.925 0-3.5.423-3.5.941m-1.935 9.197c.131 1.299-.281 3.631-.915 5.181-1.356 3.317-.527 7.681 1.458 7.681 1.669 0 1.801-1.191.299-2.693-.79-.79-.74-1.745.182-3.45 1.697-3.141 1.74-8.078.075-8.635-.902-.301-1.259.323-1.099 1.916m8.435 2.326c-1.1 1.344-2.787 2.464-3.75 2.49-.963.025-1.75.721-1.75 1.546 0 1.443 1.115 1.915 3.734 1.578.728-.093.99.479.638 1.395-.328.854.008 2.28.747 3.17 1.204 1.451 1.009 1.544-1.889.908-2.451-.539-3.23-.369-3.23.703 0 2.186 1.049 2.733 2.957 1.541.973-.608 2.962-.781 4.507-.393 2.406.603 2.693 1.064 2.2 3.528-.312 1.559-.251 3.15.135 3.535.385.386.701 1.227.701 1.868 0 .642 1.049 1.22 2.332 1.284 1.282.065 3.052.838 3.933 1.719 1.521 1.522 1.916 2.896 2.487 8.664.185 1.869.774 2.447 2.331 2.291 1.722-.172 2.084.349 2.084 3 0 1.765-.188 2.647-.417 1.959-.484-1.452-3.25-1.708-3.25-.302 0 .522 1.127 2.165 2.505 3.652s2.995 4.548 3.593 6.802c.598 2.254 1.72 5.576 2.494 7.382 1.618 3.774 1.853 8.823.452 9.689-1.431.884-.176 3.259 2.025 3.835 1.132.296 1.931 1.371 1.931 2.598 0 1.195.644 2.094 1.5 2.094.825 0 1.5-.627 1.5-1.393s.647-1.641 1.438-1.945c1.807-.693 1.431-5.023-.644-7.399-3.846-4.405-6.95-10.788-7.499-15.419-.334-2.824-1.186-5.249-1.945-5.54-2.009-.771-1.632-4.739.646-6.801 1.515-1.37 1.729-2.129.887-3.144-.61-.735-1.502-1.095-1.981-.798-.48.296-.598-.829-.264-2.5.408-2.041.041-3.902-1.119-5.672-1.448-2.21-1.524-3.012-.472-4.977.979-1.829.99-2.662.052-3.792-.661-.797-1.066-2.7-.9-4.229.23-2.124-.289-3.085-2.199-4.071-1.375-.71-1.937-1.297-1.25-1.305 2.082-.025 1.406-1.867-1.348-3.671-2.174-1.425-2.932-1.494-4.645-.424-1.768 1.104-1.963 1.06-1.433-.321.389-1.015.08-1.599-.847-1.599-.803 0-2.022-.9-2.709-2-1.581-2.531-1.839-2.503-4.268.464m-12.862.036c-.35.914-.001 1.5.893 1.5.808 0 1.469-.675 1.469-1.5s-.402-1.5-.893-1.5-1.152.675-1.469 1.5M119 63c0 .55.45 1 1 1s1-.45 1-1-.45-1-1-1-1 .45-1 1m-4.47 3c-.154.275.023 1.331.392 2.347.61 1.677.794 1.7 1.998.25 1.458-1.758 5.08-2.183 5.08-.597 0 2.139.191 2.528 1.646 3.342 1.761.985 1.879.894 2.824-2.178.648-2.105.52-2.229-1.303-1.254-1.648.882-2.084.762-2.356-.652-.247-1.285-1.33-1.738-4.168-1.747-2.108-.006-3.959.214-4.113.489m27.85.452c-.306.799-.294 1.879.029 2.4.785 1.271 7.591 1.218 7.591-.059 0-.554-.675-.748-1.5-.431-1.02.391-1.5-.054-1.5-1.393 0-2.345-3.757-2.765-4.62-.517m4.62 6.963c0 .743.866 1.578 1.925 1.855 1.306.342 1.764.082 1.423-.806-.712-1.855-3.348-2.682-3.348-1.049m6.475.381c.289.752.525 1.556.525 1.786 0 .23.675.418 1.5.418s1.5-.872 1.5-1.938c0-1.329-.636-1.89-2.025-1.785-1.268.095-1.828.663-1.5 1.519m63.812 2.761c5.75 8.024 9.45 16.403 11.376 25.758 1.667 8.101 1.681 9.29.203 17.979-5.374 31.589-34.983 56.333-78.141 65.303-8.178 1.7-8.536 1.884-7.443 3.844.631 1.133 1.163 2.503 1.183 3.045.061 1.707 3.227 1.71 13.281.011 32.181-5.438 58.159-20.456 71.783-41.497 7.02-10.841 8.971-17.583 8.971-31 0-9.708-.377-12.513-2.42-18-2.811-7.55-9.24-17.778-14.772-23.5-6.364-6.583-7.866-7.309-4.021-1.943M124 75.441c0 1.501 1.795 3.097 2.59 2.302.698-.697-.683-3.743-1.697-3.743-.491 0-.893.648-.893 1.441m6 1.109c0 2.916-2.599 8.45-3.969 8.45-.505 0-.866 2.25-.804 5 .079 3.472.526 5 1.463 5 .939 0 1.158-.759.721-2.5-.718-2.86.176-3.184 2.637-.957 1.518 1.374 1.769 1.377 2.287.028.345-.902-.298-2.132-1.586-3.034-1.466-1.027-1.839-1.847-1.153-2.533.687-.687 1.712-.366 3.168.99 1.184 1.104 3.085 2.006 4.226 2.006 1.14 0 2.332.675 2.648 1.5.317.825 1.345 1.5 2.285 1.5 1.969 0 6.077 6.723 6.077 9.945 0 1.195.398 1.927.885 1.626.486-.3.852-2.709.812-5.351-.067-4.429-.411-5.076-4.388-8.263-2.374-1.901-5.372-3.501-6.663-3.556-3.376-.142-4.646-1.195-4.646-3.853 0-1.284-.726-2.612-1.613-2.953-1.283-.492-1.367-.914-.414-2.063.66-.794.909-1.914.554-2.488-1.171-1.895-2.527-1.087-2.527 1.506m-12.75 4.022c0 1.828.728 2.849 2.514 3.528 2.774 1.055 3.81.638 2.735-1.102-.386-.624-1.331-.893-2.1-.598-1.654.635-1.893-.976-.292-1.966.771-.477.696-.944-.25-1.544-2.148-1.361-2.607-1.065-2.607 1.682m13.389 1.122c-1.126 1.126-.685 2.306.861 2.306.825 0 1.5-.423 1.5-.941 0-1.261-1.562-2.164-2.361-1.365M113.5 83c-.34.55.084 1 .941 1S116 83.55 116 83s-.423-1-.941-1-1.219.45-1.559 1M131 94.941c0 .518.45 1.219 1 1.559.55.34 1-.084 1-.941S132.55 94 132 94s-1 .423-1 .941M116 98.5c0 .825.675 1.5 1.5 1.5s1.5-.675 1.5-1.5-.675-1.5-1.5-1.5-1.5.675-1.5 1.5m14.707 2.196c-4.497 3.334-4.692 3.663-3.168 5.348 1.33 1.469 2.154 1.61 4.543.778 2.779-.969 4.039-2.822 1.918-2.822-.55 0-1-.505-1-1.122 0-.801.368-.817 1.284-.058.877.729 1.747.743 2.75.047 1-.696 1.103-1.169.322-1.491-.629-.26-.914-1.35-.633-2.424.708-2.707-.471-2.365-6.016 1.744m-8.557 1.254c.22.66.726 1.166 1.125 1.125 1.196-.124.964-1.495-.325-1.925-.66-.22-1.02.14-.8.8m-12.042 5.161c-3.118 2.528-2.327 3.317.892.889 1.359-1.025 2.252-2.08 1.985-2.346-.267-.265-1.561.391-2.877 1.457m12.361-1.061c-.95 1.538.351 2.53 1.635 1.246.718-.718.735-1.277.052-1.699-.56-.346-1.319-.142-1.687.453m6.17 4.644c-1.126 1.126-.685 2.306.861 2.306.825 0 1.5-.423 1.5-.941 0-1.261-1.562-2.164-2.361-1.365m-3.739 3.625c-.683 1.499-1.707 2.309-2.524 1.995-1.703-.653-1.725.644-.049 2.847 1.132 1.489 1.402 1.349 2.594-1.345 1.381-3.119 2.516-3.285 8.829-1.293 1.375.434 2.25.294 2.25-.361 0-.589-1.687-1.375-3.75-1.747-2.062-.372-4.301-1.113-4.975-1.647-.871-.691-1.557-.243-2.375 1.551m-20.9-.378c0 .518.45 1.219 1 1.559.55.34 1-.084 1-.941s-.45-1.559-1-1.559-1 .423-1 .941m37.203-.101c-1.039.669-.991 1.091.237 2.11 1.795 1.49 4.916.62 4.31-1.201-.518-1.556-2.829-2.018-4.547-.909m-11.668 6.362c-.392.936-.447 2.132-.122 2.657.34.551-.322.716-1.568.39-1.479-.386-1.933-.2-1.442.593.678 1.098-1.108 1.628-4.153 1.233-.687-.09-1.25.504-1.25 1.318 0 1.126.816 1.349 3.403.929 2.78-.451 3.613-.16 4.55 1.591.631 1.179 1.575 1.879 2.097 1.556 1.47-.908 1.122-2.469-.55-2.469-1.912 0-1.915-.97-.009-2.39 1.122-.835 1.276-1.852.623-4.11-.696-2.407-1.008-2.663-1.579-1.298m-19.535.857c0 .582.45.781 1 .441s1-.816 1-1.059-.45-.441-1-.441-1 .477-1 1.059m-9.511.959c-.915 1.48-.047 2.237 2.088 1.82 1.563-.304 1.579-.467.168-1.637-1.125-.932-1.761-.983-2.256-.183m6.19.376c-.294.766.558 2.419 1.893 3.674 2.845 2.672 2.985 2.356.855-1.914-1.779-3.566-2-3.708-2.748-1.76m11.864-.463c-.683 1.105.894 2.299 1.818 1.375.95-.951.773-2.306-.302-2.306-.518 0-1.2.419-1.516.931M100 129c0 .55.927 1 2.059 1 1.132 0 1.781-.45 1.441-1-.34-.55-1.266-1-2.059-1-.793 0-1.441.45-1.441 1m1.583 3.866c-.431.697-.513 1.537-.183 1.867.895.895 1.871-.421 1.387-1.871-.338-1.016-.574-1.016-1.204.004m22.917 4.599c-2.599 1.122-2.757 1.396-1.183 2.048 1.012.419 2.811.221 4.056-.445 1.231-.659 2.832-1.056 3.557-.883.726.173 1.503-.179 1.727-.782.572-1.539-4.539-1.5-8.157.062m-2.25 5.479c-2.687 2.241-3.031 5.353-.54 4.873 1.008-.194 1.983-1.661 2.374-3.573.365-1.784.608-3.229.54-3.211-.068.019-1.137.878-2.374 1.911m10.038 3.967c-.945 1.513-.917 2.017.134 2.421.879.337 1.328-.31 1.328-1.911 0-2.91.03-2.899-1.462-.51m-8.143 9.414c-.908 1.094-.834 1.688.331 2.655 1.224 1.016 1.619.936 2.145-.435.897-2.337-.981-4.022-2.476-2.22m-.145 6.756c0 1.325 2.675 1.733 6.089.928 1.876-.442 3.186-.911 2.911-1.042-1.278-.608-9-.511-9 .114m18.122-.177c-.758.48-1.081 1.353-.718 1.941.875 1.416 3.596.318 3.596-1.452 0-1.593-.896-1.745-2.878-.489M121.5 166c-.399.646-.276 1.624.274 2.174.667.667 1.242.609 1.726-.174.399-.646.276-1.624-.274-2.174-.667-.667-1.242-.609-1.726.174m9.735 5.25c.303 3.127.052 3.75-1.507 3.75-1.029 0-2.477.606-3.218 1.347-1.13 1.13-1.036 1.615.583 3 2.434 2.084 4.517 2.112 5.3.071.962-2.506.677-8.774-.473-10.418-.793-1.134-.96-.585-.685 2.25M70 178.458c0 1.164 14.143 7.241 23 9.882 11.377 3.392 23.672 5.471 34 5.747 13.207.353 14 .227 14-2.227 0-1.177-.752-2.689-1.671-3.361-1.976-1.445-5.329-.809-5.329 1.011 0 2.281-3.31 2.722-4.959.66-1.322-1.653-3.319-2.009-14.041-2.506-15.196-.704-31.709-4.19-43.25-9.129-.963-.412-1.75-.447-1.75-.077m41.75 23.122c-.412.414-.75 5.371-.75 11.015 0 8.124.337 10.599 1.619 11.881 1.875 1.875 3.207 1.225 1.559-.761-.613-.739-1.234-6.144-1.392-12.111-.157-5.928-.624-10.439-1.036-10.024M120 204c0 .55.45 1 1 1s1-.45 1-1-.45-1-1-1-1 .45-1 1m-27 10.5V225l6.75-.163 6.75-.163-5.5-.587-5.5-.587-.307-4.25-.308-4.25h4.558c2.506 0 4.557-.376 4.557-.836 0-.46-1.912-.798-4.25-.75-4.207.085-4.253.048-4.56-3.664l-.311-3.75h5.002c2.75 0 5.279-.45 5.619-1 .388-.628-1.823-1-5.941-1H93v10.5m37.75-4.784l-2.75.417v10.433c0 6.289.397 10.434 1 10.434.55 0 1-1.386 1-3.079 0-2.888.183-3.04 2.941-2.434 5.775 1.268 9.823-3.601 8.566-10.303-.485-2.581-1.397-3.658-4.034-4.76-1.875-.783-3.536-1.357-3.691-1.274-.155.082-1.52.337-3.032.566m18.478.323c-1.25.502-2.542 1.616-2.871 2.474-.664 1.73 2.23 5.487 4.227 5.487 1.984 0 4.393 2.896 3.767 4.529-.37.963-1.995 1.476-4.708 1.486-3.043.012-3.745.273-2.643.985 2.373 1.534 5.578 1.164 8.139-.937 2.937-2.411 1.886-4.646-3.53-7.508-4.524-2.391-4.445-4.924.168-5.37 1.794-.173 3.001-.735 2.683-1.25-.702-1.135-2.22-1.105-5.232.104m16.087-.023c-4.224 1.684-5.738 8.507-2.814 12.682 1.797 2.566 6.723 3.851 9.211 2.403 1.475-.858 1.144-1.046-1.891-1.071-3.783-.031-6.821-2.081-6.821-4.601 0-1.065 1.4-1.429 5.5-1.429 5.392 0 5.5-.056 5.5-2.878 0-4.313-4.313-6.848-8.685-5.106M120 217.5c0 4.333.422 7.5 1 7.5.578 0 1-3.167 1-7.5s-.422-7.5-1-7.5c-.578 0-1 3.167-1 7.5m10.409-5.123c-.291.757-.389 3.57-.219 6.25.296 4.659.448 4.886 3.464 5.179 5.351.52 8.183-5.738 4.789-10.583-1.767-2.523-7.172-3.092-8.034-.846m33.626.557c-1.561 2.917-1.392 3.066 3.465 3.066 3.026 0 4.5-.426 4.5-1.3 0-3.698-6.196-5.072-7.965-1.766" fill="#1976D2" fill-rule="evenodd"/></svg>